<svg width="40" height="40" viewBox="0 0 40 40" fill="none" xmlns="http://www.w3.org/2000/svg">
<path d="M20 11.875C12.8922 11.875 7.10938 17.6578 7.10938 24.7656V25.9375H32.8906V24.7656C32.8906 17.6578 27.1078 11.875 20 11.875Z" fill="black"/>
<path d="M0 0V2.34375H18.8281V7.03125H16.8124L15.8279 10.1172C17.1408 9.74213 18.5468 9.53125 20 9.53125C21.4532 9.53125 22.8592 9.74213 24.1721 10.1172L23.1876 7.03125H21.1719V2.34375H40V0H0Z" fill="black"/>
<path d="M12.6172 28.2812C13.9062 31.0468 16.7422 32.9688 20 32.9688C23.2578 32.9688 26.0938 31.0468 27.3828 28.2812H12.6172Z" fill="black"/>
<path d="M18.8281 35.3125H21.1719V40H18.8281V35.3125Z" fill="black"/>
<path d="M29.2572 35.6802L26.6296 33.0526L28.2867 31.3955L30.9143 34.0231L29.2572 35.6802Z" fill="black"/>
<path d="M10.7428 35.6802L9.08569 34.0231L11.7133 31.3955L13.3704 33.0526L10.7428 35.6802Z" fill="black"/>
</svg>
