<svg width="40" height="40" viewBox="0 0 40 40" fill="none" xmlns="http://www.w3.org/2000/svg">
<path d="M34.5013 21.4961L29.9908 1.60553C29.7968 0.750254 28.8575 0 27.9804 0H12.0197C11.1427 0 10.2033 0.750254 10.0093 1.60553L5.49872 21.4961C5.42062 21.8407 5.47525 22.1526 5.65241 22.3745C5.82964 22.5965 6.12178 22.7187 6.47504 22.7187H10.962V26.1048C10.3948 26.4127 10.0096 27.0134 10.0096 27.7041C10.0096 28.7083 10.8237 29.5223 11.8279 29.5223C12.8321 29.5223 13.6461 28.7083 13.6461 27.7041C13.6461 27.0133 13.2609 26.4126 12.6937 26.1048V22.7187H33.5248C33.878 22.7187 34.1702 22.5964 34.3474 22.3745C34.5248 22.1525 34.5794 21.8407 34.5013 21.4961Z" fill="black"/>
<path d="M27.5975 38.2684H20.8658V24.4504H19.1341V38.2683H12.4025C11.9243 38.2683 11.5366 38.6559 11.5366 39.1341C11.5366 39.6123 11.9243 40 12.4025 40H27.5975C28.0756 40 28.4634 39.6123 28.4634 39.1341C28.4634 38.656 28.0756 38.2684 27.5975 38.2684Z" fill="black"/>
</svg>
