<svg width="40" height="40" viewBox="0 0 40 40" fill="none" xmlns="http://www.w3.org/2000/svg">
<path d="M31.418 5.08944V6.79418H24.8123V5.08944H31.418ZM28.6479 8.80476H24.8123V10.5095H28.6479V8.80476ZM24.8123 14.2248H31.418V12.5202H24.8123V14.2248ZM28.6479 16.2365H24.8123V17.9412H28.6479V16.2365ZM24.8123 21.6565H31.418V19.9518H24.8123V21.6565ZM25.842 31.3699C25.842 36.1286 21.9706 40 17.2119 40C12.4532 40 8.58182 36.1286 8.58182 31.3699C8.58182 28.2861 10.2013 25.4835 12.8436 23.9332V4.36836C12.8437 1.95952 14.8032 0 17.2119 0C19.6206 0 21.5803 1.95952 21.5803 4.36836V23.9333C24.2225 25.4819 25.842 28.2853 25.842 31.3699ZM24.1373 31.3699C24.1373 28.7532 22.6832 26.3879 20.3417 25.1989L19.8755 24.9619V4.36916C19.8755 2.89969 18.6806 1.70554 17.2119 1.70554C15.7434 1.70554 14.5483 2.89969 14.5483 4.36916V24.9619L14.0821 25.1989C11.7407 26.3888 10.2866 28.754 10.2866 31.3699C10.2866 35.1884 13.3934 38.2953 17.2119 38.2953C21.0304 38.2953 24.1373 35.1884 24.1373 31.3699ZM22.7173 31.3699C22.7173 34.4051 20.2479 36.8745 17.2119 36.8745C14.1767 36.8745 11.7074 34.4051 11.7074 31.3699C11.7074 28.8819 13.3882 26.6973 15.7952 26.0573L16.1114 25.9729V15.4592H18.3131V25.9721L18.6293 26.0574C21.0373 26.6973 22.7173 28.8828 22.7173 31.3699ZM17.4847 27.7006C17.3534 27.1176 16.7671 26.734 16.1695 26.8704C14.0829 27.3425 12.6254 29.1674 12.6254 31.3086C12.6254 31.9146 13.1189 32.4082 13.725 32.4082C14.3311 32.4082 14.8246 31.9147 14.8246 31.3086C14.8246 30.2202 15.5934 29.2554 16.6545 29.0158C17.2443 28.8802 17.6176 28.2904 17.4847 27.7006Z" fill="black"/>
</svg>
